<?xml version="1.0" encoding="utf-8"?>
<!-- Generator: Adobe Illustrator 22.1.0, SVG Export Plug-In . SVG Version: 6.00 Build 0)  -->
<svg version="1.1" xmlns="http://www.w3.org/2000/svg" xmlns:xlink="http://www.w3.org/1999/xlink" x="0px" y="0px"
	 viewBox="0 0 100 100" style="enable-background:new 0 0 100 100;" xml:space="preserve">
<style type="text/css">
  .st0{fill:#FFFFFF;}
	.st1{fill:#565FAB;}
</style>
<g id="Disk_On_1_">
	<g>
		<path class="st0" d="M50,96.6C24.3,96.6,3.4,75.7,3.4,50C3.4,24.3,24.3,3.4,50,3.4c25.7,0,46.6,20.9,46.6,46.6
			C96.6,75.7,75.7,96.6,50,96.6z M50,7.4C26.5,7.4,7.4,26.5,7.4,50S26.5,92.6,50,92.6S92.6,73.5,92.6,50S73.5,7.4,50,7.4z"/>
	</g>
</g>
<g id="Icon_Active">
	<g>
		<path class="st0" d="M47.1,64.2l-8,0.1L35,59.6L30,60.8l-5.1-2.8c-0.4,0.3-0.9,0.4-1.4,0.4c-1.4,0-2.6-1.2-2.6-2.6
			c0-0.7,0.3-1.4,0.8-1.9l-1.7-6.2l0.8-7.4l3.6-2.8l2.7-3.1c-0.2-0.4-0.3-0.8-0.3-1.3c0-1.5,1.2-2.8,2.8-2.8c0.9,0,1.7,0.4,2.2,1.1
			l5-1.5l9.9-2.3c0.2-1.3,1.3-2.3,2.7-2.3c1.3,0,2.4,0.9,2.7,2.1l9.7,1.9l6.1,2.9c0.5-0.5,1.2-0.8,1.9-0.8c1.4,0,2.6,1.2,2.6,2.6
			c0,0.5-0.1,1-0.4,1.4l6.3,8.2l2.3,6.2l-2.4,6.6l-3.3,1.4l-1,4.4l-7,4.3l-6.2,0.9l-0.2-0.1c-0.3-0.1-1.9-0.9-2.9-1.3l0.9,9.5
			L57,76.2L47.1,64.2z M56.3,72.6l-0.7-7.3c-0.1-0.1-0.3-0.3-0.6-0.5c-0.4-0.4-0.8-0.9-1.4-1.5c-0.6-0.6-1.1-1.2-1.5-1.6l-3.2,1.9
			L56.3,72.6z M62.1,65.5l4-0.6l6.1-3.8l0.6-2.8l-6.1,0.9c-0.4,1.3-1.5,2.2-2.8,2.2c0,0,0,0-0.1,0L62.1,65.5z M56.8,64
			c0.2,0.1,0.8,0.3,2.3,0.9c0.4,0.2,0.8,0.4,1.2,0.5l2-4.6c-0.3-0.2-0.5-0.5-0.7-0.8l-7.4,1.1C55.3,62.6,56.4,63.6,56.8,64z
			 M39.9,62.6l7.4-0.1l3.6-2.1l-4-4.8l-4,1.4c-0.2,1-1.1,1.8-2.1,1.8c-0.5,0-1-0.2-1.4-0.6L36.9,59L39.9,62.6z M53.5,59.5l7.5-1.1
			c0.1-1.6,1.4-2.8,2.9-2.8c0.2,0,0.4,0,0.5,0l2.3-5.5c-0.4-0.3-0.7-0.6-1-1l-8.4,2.9c-0.2,1.2-1.1,2.1-2.3,2.3L53.5,59.5z
			 M30.2,58.9l3.6-0.8l-4.3-5.6L25.9,55c0.1,0.2,0.1,0.5,0.1,0.7c0,0.3,0,0.5-0.1,0.8L30.2,58.9z M51.9,58.7l1.5-4.9
			c-0.2-0.1-0.3-0.2-0.4-0.3l-4.2,1.4L51.9,58.7z M35.7,57.6l3.1-1.1c0-1.1,1-2.1,2.1-2.1c0.6,0,1.2,0.3,1.6,0.8l3.3-1.1l-4.8-5.8
			c-0.6,0.3-1.3,0.5-1.9,0.5c-1,0-2-0.4-2.8-1.1l-5.3,3.8L35.7,57.6z M66,56.4c0.3,0.3,0.5,0.7,0.7,1.1l6-0.9l-2.8-6
			c-0.4,0.1-0.7,0.2-1.1,0.2c-0.1,0-0.3,0-0.4,0L66,56.4z M74.5,56.1l2.3-1l1.9-5.2l-1.7-4.7l-4.5,1.5c0,0.1,0,0.3,0,0.4
			c0,0.9-0.3,1.8-1,2.5L74.5,56.1z M23.4,53.1c0.5,0,1,0.2,1.5,0.4l3.5-2.5L22.2,43l-0.5,4.5l1.6,5.6C23.3,53.1,23.4,53.1,23.4,53.1
			z M47.6,53.5l4.6-1.6c0-0.1,0-0.2,0-0.4c0-1.5,1.2-2.7,2.7-2.7c0,0,0.1,0,0.1,0l1.5-5l-11.8-6.4l-2.8,4.5c0.8,0.8,1.2,1.8,1.2,2.9
			c0,0.8-0.3,1.6-0.7,2.3L47.6,53.5z M56.6,49.5c0.2,0.2,0.4,0.4,0.6,0.7l8.2-2.8c0-0.1,0-0.1,0-0.2c0-1.2,0.6-2.4,1.7-3l-2.3-5.1
			l-6.4,4.9L56.6,49.5z M29.9,50l5.4-3.9c-0.2-0.5-0.3-0.9-0.3-1.4c0-0.9,0.3-1.8,0.9-2.5l-3.3-3.9L25.3,39l-2.5,1.9L29.9,50z
			 M68.9,43.6c1.2,0,2.3,0.6,2.9,1.5l4.2-1.4l-5.5-7.1c-0.3,0.1-0.5,0.1-0.8,0.1c-0.5,0-1-0.1-1.4-0.4L66.1,38l2.6,5.6
			C68.7,43.6,68.8,43.6,68.9,43.6z M57,42.1l3.4-11.2l-8.5-1.7c-0.5,0.9-1.4,1.5-2.5,1.5c-0.2,0-0.4,0-0.5-0.1l-3.3,5.2L57,42.1z
			 M37.3,41.1c0.5-0.2,1.1-0.4,1.7-0.4c0.4,0,0.9,0.1,1.3,0.2l2.3-3.7L34.8,38L37.3,41.1z M59.1,41l4.7-3.6l-2.2-4.8L59.1,41z
			 M27.1,37l4.2-0.4l-0.8-1c-0.3,0.1-0.6,0.2-0.9,0.2c-0.4,0-0.8-0.1-1.2-0.3L27.1,37z M33.4,36.4l10.4-1l3.5-5.6
			c-0.1-0.1-0.2-0.3-0.3-0.4l-9.8,2.2l-4.9,1.4c0,0.5-0.2,1-0.5,1.5L33.4,36.4z M65.3,36.3l1.9-1.4c-0.1-0.3-0.1-0.5-0.1-0.8
			c0-0.1,0-0.2,0-0.2L63.3,32L65.3,36.3z"/>
	</g>
</g>
</svg>
